<svg xmlns="http://www.w3.org/2000/svg" viewBox="0 0 320 240"><defs><pattern id="p17364C" width="7" height="7" patternUnits="userSpaceOnUse"><rect width="7" height="7" fill="#17364C"/><path d="M-2 7L7-2M2 9L9 2" stroke="#233B53" stroke-width=".55" opacity=".17"/></pattern><pattern id="p668599" width="7" height="7" patternUnits="userSpaceOnUse"><rect width="7" height="7" fill="#668599"/><path d="M-2 7L7-2M2 9L9 2" stroke="#233B53" stroke-width=".55" opacity=".17"/></pattern><pattern id="p86B0D4" width="7" height="7" patternUnits="userSpaceOnUse"><rect width="7" height="7" fill="#86B0D4"/><path d="M-2 7L7-2M2 9L9 2" stroke="#233B53" stroke-width=".55" opacity=".17"/></pattern><pattern id="pA9C184" width="7" height="7" patternUnits="userSpaceOnUse"><rect width="7" height="7" fill="#A9C184"/><path d="M-2 7L7-2M2 9L9 2" stroke="#233B53" stroke-width=".55" opacity=".17"/></pattern><pattern id="pDCEAF0" width="7" height="7" patternUnits="userSpaceOnUse"><rect width="7" height="7" fill="#DCEAF0"/><path d="M-2 7L7-2M2 9L9 2" stroke="#233B53" stroke-width=".55" opacity=".17"/></pattern><pattern id="pEEAD7E" width="7" height="7" patternUnits="userSpaceOnUse"><rect width="7" height="7" fill="#EEAD7E"/><path d="M-2 7L7-2M2 9L9 2" stroke="#233B53" stroke-width=".55" opacity=".17"/></pattern><pattern id="pFFFCED" width="7" height="7" patternUnits="userSpaceOnUse"><rect width="7" height="7" fill="#FFFCED"/><path d="M-2 7L7-2M2 9L9 2" stroke="#233B53" stroke-width=".55" opacity=".17"/></pattern></defs><g opacity=".24"><circle cx="91" cy="97" r="68" fill="url(#pEEAD7E)"/><path d="M190 38a58 58 0 0 1 58 58h-58Z" fill="url(#pEEAD7E)" stroke="none" stroke-width="2" stroke-linecap="round" stroke-linejoin="round"/></g><ellipse cx="161" cy="213" rx="113" ry="10" fill="url(#p17364C)" opacity=".06"/><circle cx="267" cy="63" r="1.6" fill="url(#p668599)"/><circle cx="278" cy="63" r="1.6" fill="url(#p668599)"/><circle cx="289" cy="63" r="1.6" fill="url(#p668599)"/><circle cx="267" cy="74" r="1.6" fill="url(#p668599)"/><circle cx="278" cy="74" r="1.6" fill="url(#p668599)"/><circle cx="289" cy="74" r="1.6" fill="url(#p668599)"/><circle cx="267" cy="85" r="1.6" fill="url(#p668599)"/><circle cx="278" cy="85" r="1.6" fill="url(#p668599)"/><circle cx="289" cy="85" r="1.6" fill="url(#p668599)"/><rect x="64" y="46" width="192" height="156" rx="13" fill="url(#pFFFCED)"/><rect x="64" y="46" width="192" height="40" rx="12" fill="url(#p86B0D4)"/><path d="M99 31v31M219 31v31" fill="none" stroke="#233B53" stroke-width="7" stroke-linecap="round" stroke-linejoin="round"/><rect x="83" y="101" width="17" height="15" rx="4" fill="url(#pA9C184)"/><rect x="115" y="101" width="17" height="15" rx="4" fill="url(#pDCEAF0)"/><rect x="147" y="101" width="17" height="15" rx="4" fill="url(#pDCEAF0)"/><rect x="179" y="101" width="17" height="15" rx="4" fill="url(#pDCEAF0)"/><rect x="211" y="101" width="17" height="15" rx="4" fill="url(#pA9C184)"/><rect x="83" y="131" width="17" height="15" rx="4" fill="url(#pDCEAF0)"/><rect x="115" y="131" width="17" height="15" rx="4" fill="url(#pDCEAF0)"/><rect x="147" y="131" width="17" height="15" rx="4" fill="url(#pDCEAF0)"/><rect x="179" y="131" width="17" height="15" rx="4" fill="url(#pA9C184)"/><rect x="211" y="131" width="17" height="15" rx="4" fill="url(#pDCEAF0)"/><rect x="83" y="161" width="17" height="15" rx="4" fill="url(#pDCEAF0)"/><rect x="115" y="161" width="17" height="15" rx="4" fill="url(#pDCEAF0)"/><rect x="147" y="161" width="17" height="15" rx="4" fill="url(#pA9C184)"/><rect x="179" y="161" width="17" height="15" rx="4" fill="url(#pDCEAF0)"/><rect x="211" y="161" width="17" height="15" rx="4" fill="url(#pDCEAF0)"/><circle cx="194" cy="168" r="14" fill="url(#pEEAD7E)"/></svg>