<svg xmlns="http://www.w3.org/2000/svg" viewBox="0 0 320 240"><defs><pattern id="p17364C" width="7" height="7" patternUnits="userSpaceOnUse"><rect width="7" height="7" fill="#17364C"/><path d="M-2 7L7-2M2 9L9 2" stroke="#233B53" stroke-width=".55" opacity=".17"/></pattern><pattern id="p233B53" width="7" height="7" patternUnits="userSpaceOnUse"><rect width="7" height="7" fill="#233B53"/><path d="M-2 7L7-2M2 9L9 2" stroke="#233B53" stroke-width=".55" opacity=".17"/></pattern><pattern id="p668599" width="7" height="7" patternUnits="userSpaceOnUse"><rect width="7" height="7" fill="#668599"/><path d="M-2 7L7-2M2 9L9 2" stroke="#233B53" stroke-width=".55" opacity=".17"/></pattern><pattern id="pEEAD7E" width="7" height="7" patternUnits="userSpaceOnUse"><rect width="7" height="7" fill="#EEAD7E"/><path d="M-2 7L7-2M2 9L9 2" stroke="#233B53" stroke-width=".55" opacity=".17"/></pattern><pattern id="pFFDA64" width="7" height="7" patternUnits="userSpaceOnUse"><rect width="7" height="7" fill="#FFDA64"/><path d="M-2 7L7-2M2 9L9 2" stroke="#233B53" stroke-width=".55" opacity=".17"/></pattern></defs><g opacity=".24"><circle cx="91" cy="97" r="68" fill="url(#pFFDA64)"/><path d="M190 38a58 58 0 0 1 58 58h-58Z" fill="url(#pEEAD7E)" stroke="none" stroke-width="2" stroke-linecap="round" stroke-linejoin="round"/></g><ellipse cx="161" cy="213" rx="113" ry="10" fill="url(#p17364C)" opacity=".06"/><circle cx="267" cy="63" r="1.6" fill="url(#p668599)"/><circle cx="278" cy="63" r="1.6" fill="url(#p668599)"/><circle cx="289" cy="63" r="1.6" fill="url(#p668599)"/><circle cx="267" cy="74" r="1.6" fill="url(#p668599)"/><circle cx="278" cy="74" r="1.6" fill="url(#p668599)"/><circle cx="289" cy="74" r="1.6" fill="url(#p668599)"/><circle cx="267" cy="85" r="1.6" fill="url(#p668599)"/><circle cx="278" cy="85" r="1.6" fill="url(#p668599)"/><circle cx="289" cy="85" r="1.6" fill="url(#p668599)"/><path d="M160 31v18" fill="none" stroke="#D8A928" stroke-width="4" stroke-linecap="round" transform="rotate(0 160 120)"/><path d="M160 31v18" fill="none" stroke="#D8A928" stroke-width="4" stroke-linecap="round" transform="rotate(30 160 120)"/><path d="M160 31v18" fill="none" stroke="#D8A928" stroke-width="4" stroke-linecap="round" transform="rotate(60 160 120)"/><path d="M160 31v18" fill="none" stroke="#D8A928" stroke-width="4" stroke-linecap="round" transform="rotate(90 160 120)"/><path d="M160 31v18" fill="none" stroke="#D8A928" stroke-width="4" stroke-linecap="round" transform="rotate(120 160 120)"/><path d="M160 31v18" fill="none" stroke="#D8A928" stroke-width="4" stroke-linecap="round" transform="rotate(150 160 120)"/><path d="M160 31v18" fill="none" stroke="#D8A928" stroke-width="4" stroke-linecap="round" transform="rotate(180 160 120)"/><path d="M160 31v18" fill="none" stroke="#D8A928" stroke-width="4" stroke-linecap="round" transform="rotate(210 160 120)"/><path d="M160 31v18" fill="none" stroke="#D8A928" stroke-width="4" stroke-linecap="round" transform="rotate(240 160 120)"/><path d="M160 31v18" fill="none" stroke="#D8A928" stroke-width="4" stroke-linecap="round" transform="rotate(270 160 120)"/><path d="M160 31v18" fill="none" stroke="#D8A928" stroke-width="4" stroke-linecap="round" transform="rotate(300 160 120)"/><path d="M160 31v18" fill="none" stroke="#D8A928" stroke-width="4" stroke-linecap="round" transform="rotate(330 160 120)"/><circle cx="160" cy="120" r="56" fill="url(#pFFDA64)"/><circle cx="143" cy="115" r="4" fill="url(#p233B53)"/><circle cx="177" cy="115" r="4" fill="url(#p233B53)"/><path d="M141 136q19 21 39-2" fill="none" stroke="#233B53" stroke-width="3" stroke-linecap="round" stroke-linejoin="round"/></svg>