<svg xmlns="http://www.w3.org/2000/svg" viewBox="0 0 320 240"><defs><pattern id="p17364C" width="7" height="7" patternUnits="userSpaceOnUse"><rect width="7" height="7" fill="#17364C"/><path d="M-2 7L7-2M2 9L9 2" stroke="#233B53" stroke-width=".55" opacity=".17"/></pattern><pattern id="p233B53" width="7" height="7" patternUnits="userSpaceOnUse"><rect width="7" height="7" fill="#233B53"/><path d="M-2 7L7-2M2 9L9 2" stroke="#233B53" stroke-width=".55" opacity=".17"/></pattern><pattern id="p668599" width="7" height="7" patternUnits="userSpaceOnUse"><rect width="7" height="7" fill="#668599"/><path d="M-2 7L7-2M2 9L9 2" stroke="#233B53" stroke-width=".55" opacity=".17"/></pattern><pattern id="p86B0D4" width="7" height="7" patternUnits="userSpaceOnUse"><rect width="7" height="7" fill="#86B0D4"/><path d="M-2 7L7-2M2 9L9 2" stroke="#233B53" stroke-width=".55" opacity=".17"/></pattern><pattern id="pA9C184" width="7" height="7" patternUnits="userSpaceOnUse"><rect width="7" height="7" fill="#A9C184"/><path d="M-2 7L7-2M2 9L9 2" stroke="#233B53" stroke-width=".55" opacity=".17"/></pattern><pattern id="pEEAD7E" width="7" height="7" patternUnits="userSpaceOnUse"><rect width="7" height="7" fill="#EEAD7E"/><path d="M-2 7L7-2M2 9L9 2" stroke="#233B53" stroke-width=".55" opacity=".17"/></pattern><pattern id="pFFFCED" width="7" height="7" patternUnits="userSpaceOnUse"><rect width="7" height="7" fill="#FFFCED"/><path d="M-2 7L7-2M2 9L9 2" stroke="#233B53" stroke-width=".55" opacity=".17"/></pattern></defs><g opacity=".24"><circle cx="91" cy="97" r="68" fill="url(#pEEAD7E)"/><path d="M190 38a58 58 0 0 1 58 58h-58Z" fill="url(#pEEAD7E)" stroke="none" stroke-width="2" stroke-linecap="round" stroke-linejoin="round"/></g><ellipse cx="161" cy="213" rx="113" ry="10" fill="url(#p17364C)" opacity=".06"/><circle cx="267" cy="63" r="1.6" fill="url(#p668599)"/><circle cx="278" cy="63" r="1.6" fill="url(#p668599)"/><circle cx="289" cy="63" r="1.6" fill="url(#p668599)"/><circle cx="267" cy="74" r="1.6" fill="url(#p668599)"/><circle cx="278" cy="74" r="1.6" fill="url(#p668599)"/><circle cx="289" cy="74" r="1.6" fill="url(#p668599)"/><circle cx="267" cy="85" r="1.6" fill="url(#p668599)"/><circle cx="278" cy="85" r="1.6" fill="url(#p668599)"/><circle cx="289" cy="85" r="1.6" fill="url(#p668599)"/><rect x="54" y="39" width="212" height="143" rx="8" fill="url(#p86B0D4)"/><rect x="64" y="49" width="192" height="121" rx="8" fill="url(#pFFFCED)"/><rect x="78" y="65" width="164" height="22" rx="3" fill="url(#pA9C184)"/><rect x="78" y="98" width="56" height="56" rx="4" fill="url(#pEEAD7E)"/><path d="M147 106h82" fill="none" stroke="#B8C8CF" stroke-width="2" stroke-linecap="round" stroke-linejoin="round"/><path d="M147 121h82" fill="none" stroke="#B8C8CF" stroke-width="2" stroke-linecap="round" stroke-linejoin="round"/><path d="M147 136h82" fill="none" stroke="#B8C8CF" stroke-width="2" stroke-linecap="round" stroke-linejoin="round"/><path d="M141 182v23h38v-23" fill="url(#p86B0D4)" stroke="#233B53" stroke-width="2" stroke-linecap="round" stroke-linejoin="round"/><rect x="119" y="204" width="82" height="8" rx="4" fill="url(#p233B53)"/></svg>