<svg xmlns="http://www.w3.org/2000/svg" viewBox="0 0 320 240"><g opacity=".24"><circle cx="91" cy="97" r="68" fill="#7DCBB7"/><path d="M190 38a58 58 0 0 1 58 58h-58Z" fill="#F59C80" stroke="none" stroke-width="2" stroke-linecap="round" stroke-linejoin="round"/></g><ellipse cx="161" cy="213" rx="113" ry="10" fill="#17364C" opacity=".06"/><circle cx="267" cy="63" r="1.6" fill="#668599"/><circle cx="278" cy="63" r="1.6" fill="#668599"/><circle cx="289" cy="63" r="1.6" fill="#668599"/><circle cx="267" cy="74" r="1.6" fill="#668599"/><circle cx="278" cy="74" r="1.6" fill="#668599"/><circle cx="289" cy="74" r="1.6" fill="#668599"/><circle cx="267" cy="85" r="1.6" fill="#668599"/><circle cx="278" cy="85" r="1.6" fill="#668599"/><circle cx="289" cy="85" r="1.6" fill="#668599"/><path d="M54 68h81l17 17h108v116H54Z" fill="#75B5E3" stroke="#24435C" stroke-width="2" stroke-linecap="round" stroke-linejoin="round"/><path d="M62 75h75l17 16h98v97H62Z" fill="#FFFCF3" stroke="#24435C" stroke-width="2" stroke-linecap="round" stroke-linejoin="round"/><path d="M49 112h217l-13 91H62Z" fill="#7DCBB7" stroke="#24435C" stroke-width="2" stroke-linecap="round" stroke-linejoin="round"/><rect x="126" y="139" width="59" height="20" rx="4" fill="#FFFCF3"/></svg>