<svg xmlns="http://www.w3.org/2000/svg" viewBox="0 0 320 240"><g opacity=".24"><circle cx="91" cy="97" r="68" fill="#FFDB75"/><path d="M190 38a58 58 0 0 1 58 58h-58Z" fill="#F59C80" stroke="none" stroke-width="2" stroke-linecap="round" stroke-linejoin="round"/></g><ellipse cx="161" cy="213" rx="113" ry="10" fill="#17364C" opacity=".06"/><circle cx="267" cy="63" r="1.6" fill="#668599"/><circle cx="278" cy="63" r="1.6" fill="#668599"/><circle cx="289" cy="63" r="1.6" fill="#668599"/><circle cx="267" cy="74" r="1.6" fill="#668599"/><circle cx="278" cy="74" r="1.6" fill="#668599"/><circle cx="289" cy="74" r="1.6" fill="#668599"/><circle cx="267" cy="85" r="1.6" fill="#668599"/><circle cx="278" cy="85" r="1.6" fill="#668599"/><circle cx="289" cy="85" r="1.6" fill="#668599"/><rect x="59" y="38" width="204" height="163" rx="8" fill="#FFFCF3"/><path d="M79 62v117h164" fill="none" stroke="#24435C" stroke-width="3" stroke-linecap="round" stroke-linejoin="round"/><rect x="98" y="123" width="27" height="56" rx="4" fill="#7DCBB7"/><rect x="145" y="95" width="27" height="84" rx="4" fill="#75B5E3"/><rect x="192" y="68" width="27" height="111" rx="4" fill="#F59C80"/><path d="M101 96l54-29 50-26" fill="none" stroke="#558E79" stroke-width="3" stroke-linecap="round" stroke-linejoin="round"/></svg>