<svg xmlns="http://www.w3.org/2000/svg" viewBox="0 0 320 240"><g opacity=".24"><circle cx="91" cy="97" r="68" fill="#7DCBB7"/><path d="M190 38a58 58 0 0 1 58 58h-58Z" fill="#F59C80" stroke="none" stroke-width="2" stroke-linecap="round" stroke-linejoin="round"/></g><ellipse cx="161" cy="213" rx="113" ry="10" fill="#17364C" opacity=".06"/><circle cx="267" cy="63" r="1.6" fill="#668599"/><circle cx="278" cy="63" r="1.6" fill="#668599"/><circle cx="289" cy="63" r="1.6" fill="#668599"/><circle cx="267" cy="74" r="1.6" fill="#668599"/><circle cx="278" cy="74" r="1.6" fill="#668599"/><circle cx="289" cy="74" r="1.6" fill="#668599"/><circle cx="267" cy="85" r="1.6" fill="#668599"/><circle cx="278" cy="85" r="1.6" fill="#668599"/><circle cx="289" cy="85" r="1.6" fill="#668599"/><path d="M46 63Q93 48 157 67Q219 46 270 62V194Q216 180 157 199Q98 182 46 196Z" fill="#75B5E3" stroke="#24435C" stroke-width="2" stroke-linecap="round" stroke-linejoin="round"/><path d="M57 52Q104 44 157 63Q215 43 259 52V181Q211 171 157 190Q109 173 57 183Z" fill="#FFFCF3" stroke="#24435C" stroke-width="2" stroke-linecap="round" stroke-linejoin="round"/><path d="M157 63V190" fill="none" stroke="#24435C" stroke-width="2" stroke-linecap="round" stroke-linejoin="round"/><path d="M75 83h62" fill="none" stroke="#B8C8CF" stroke-width="2" stroke-linecap="round" stroke-linejoin="round"/><path d="M75 98h62" fill="none" stroke="#B8C8CF" stroke-width="2" stroke-linecap="round" stroke-linejoin="round"/><path d="M75 113h62" fill="none" stroke="#B8C8CF" stroke-width="2" stroke-linecap="round" stroke-linejoin="round"/><path d="M75 128h62" fill="none" stroke="#B8C8CF" stroke-width="2" stroke-linecap="round" stroke-linejoin="round"/><path d="M75 143h62" fill="none" stroke="#B8C8CF" stroke-width="2" stroke-linecap="round" stroke-linejoin="round"/><path d="M179 82h58" fill="none" stroke="#B8C8CF" stroke-width="2" stroke-linecap="round" stroke-linejoin="round"/><path d="M179 97h58" fill="none" stroke="#B8C8CF" stroke-width="2" stroke-linecap="round" stroke-linejoin="round"/><path d="M179 112h58" fill="none" stroke="#B8C8CF" stroke-width="2" stroke-linecap="round" stroke-linejoin="round"/><path d="M179 127h58" fill="none" stroke="#B8C8CF" stroke-width="2" stroke-linecap="round" stroke-linejoin="round"/><path d="M179 142h58" fill="none" stroke="#B8C8CF" stroke-width="2" stroke-linecap="round" stroke-linejoin="round"/><path d="M210 183v32l12-8 12 8v-34" fill="#F59C80" stroke="#24435C" stroke-width="2" stroke-linecap="round" stroke-linejoin="round"/><path d="M79 29q76-28 147 0m-13-17 13 17-20 7" fill="none" stroke="#4A9F88" stroke-width="5" stroke-linecap="round" stroke-linejoin="round"/></svg>