<svg xmlns="http://www.w3.org/2000/svg" viewBox="0 0 320 240"><g opacity=".24"><path d="M43 189V79a47 47 0 0 1 94 0v110Z" fill="#AD6447" stroke="none" stroke-width="1.3" stroke-linecap="round" stroke-linejoin="round"/><path d="M186 42a69 69 0 0 1 69 69h-69Z" fill="#AD6447" stroke="none" stroke-width="1.3" stroke-linecap="round" stroke-linejoin="round"/></g><ellipse cx="161" cy="213" rx="113" ry="10" fill="#17364C" opacity=".06"/><circle cx="267" cy="63" r="1.6" fill="#A4987F"/><circle cx="278" cy="63" r="1.6" fill="#A4987F"/><circle cx="289" cy="63" r="1.6" fill="#A4987F"/><circle cx="267" cy="74" r="1.6" fill="#A4987F"/><circle cx="278" cy="74" r="1.6" fill="#A4987F"/><circle cx="289" cy="74" r="1.6" fill="#A4987F"/><circle cx="267" cy="85" r="1.6" fill="#A4987F"/><circle cx="278" cy="85" r="1.6" fill="#A4987F"/><circle cx="289" cy="85" r="1.6" fill="#A4987F"/><rect x="57" y="72" width="214" height="127" rx="2" fill="#708477"/><path d="M57 73l107 77 107-77" fill="#F7F5EF" stroke="#203C32" stroke-width="1.3" stroke-linecap="round" stroke-linejoin="round"/><path d="M57 199l76-67m138 67-77-67" fill="none" stroke="#203C32" stroke-width="1.3" stroke-linecap="round" stroke-linejoin="round"/><path d="M187 48l81-22-48 62-4-27Z" fill="#F7F5EF" stroke="#203C32" stroke-width="1.3" stroke-linecap="round" stroke-linejoin="round"/><path d="M216 61l52-35" fill="none" stroke="#203C32" stroke-width="1.5" stroke-linecap="round" stroke-linejoin="round"/></svg>