<svg xmlns="http://www.w3.org/2000/svg" viewBox="0 0 320 240"><g opacity=".24"><path d="M43 189V79a47 47 0 0 1 94 0v110Z" fill="#D6C6A5" stroke="none" stroke-width="1.3" stroke-linecap="round" stroke-linejoin="round"/><path d="M186 42a69 69 0 0 1 69 69h-69Z" fill="#AD6447" stroke="none" stroke-width="1.3" stroke-linecap="round" stroke-linejoin="round"/></g><ellipse cx="161" cy="213" rx="113" ry="10" fill="#17364C" opacity=".06"/><circle cx="267" cy="63" r="1.6" fill="#A4987F"/><circle cx="278" cy="63" r="1.6" fill="#A4987F"/><circle cx="289" cy="63" r="1.6" fill="#A4987F"/><circle cx="267" cy="74" r="1.6" fill="#A4987F"/><circle cx="278" cy="74" r="1.6" fill="#A4987F"/><circle cx="289" cy="74" r="1.6" fill="#A4987F"/><circle cx="267" cy="85" r="1.6" fill="#A4987F"/><circle cx="278" cy="85" r="1.6" fill="#A4987F"/><circle cx="289" cy="85" r="1.6" fill="#A4987F"/><circle cx="158" cy="120" r="79" fill="#D6C6A5"/><circle cx="158" cy="120" r="56" fill="none" stroke="#708477" stroke-width="28" stroke-dasharray="255 97" transform="rotate(-90 158 120)"/><circle cx="158" cy="120" r="39" fill="#F7F5EF"/></svg>