<svg xmlns="http://www.w3.org/2000/svg" viewBox="0 0 320 240"><g opacity=".24"><path d="M43 189V79a47 47 0 0 1 94 0v110Z" fill="#D6C6A5" stroke="none" stroke-width="1.3" stroke-linecap="round" stroke-linejoin="round"/><path d="M186 42a69 69 0 0 1 69 69h-69Z" fill="#AD6447" stroke="none" stroke-width="1.3" stroke-linecap="round" stroke-linejoin="round"/></g><ellipse cx="161" cy="213" rx="113" ry="10" fill="#17364C" opacity=".06"/><circle cx="267" cy="63" r="1.6" fill="#A4987F"/><circle cx="278" cy="63" r="1.6" fill="#A4987F"/><circle cx="289" cy="63" r="1.6" fill="#A4987F"/><circle cx="267" cy="74" r="1.6" fill="#A4987F"/><circle cx="278" cy="74" r="1.6" fill="#A4987F"/><circle cx="289" cy="74" r="1.6" fill="#A4987F"/><circle cx="267" cy="85" r="1.6" fill="#A4987F"/><circle cx="278" cy="85" r="1.6" fill="#A4987F"/><circle cx="289" cy="85" r="1.6" fill="#A4987F"/><rect x="59" y="38" width="204" height="163" rx="2" fill="#F7F5EF"/><path d="M79 62v117h164" fill="none" stroke="#203C32" stroke-width="3" stroke-linecap="round" stroke-linejoin="round"/><rect x="98" y="123" width="27" height="56" rx="4" fill="#A4AB94"/><rect x="145" y="95" width="27" height="84" rx="4" fill="#708477"/><rect x="192" y="68" width="27" height="111" rx="4" fill="#AD6447"/><path d="M101 96l54-29 50-26" fill="none" stroke="#558E79" stroke-width="3" stroke-linecap="round" stroke-linejoin="round"/></svg>