<svg xmlns="http://www.w3.org/2000/svg" viewBox="0 0 320 240"><g opacity=".24"><path d="M43 189V79a47 47 0 0 1 94 0v110Z" fill="#AD6447" stroke="none" stroke-width="1.3" stroke-linecap="round" stroke-linejoin="round"/><path d="M186 42a69 69 0 0 1 69 69h-69Z" fill="#AD6447" stroke="none" stroke-width="1.3" stroke-linecap="round" stroke-linejoin="round"/></g><ellipse cx="161" cy="213" rx="113" ry="10" fill="#17364C" opacity=".06"/><circle cx="267" cy="63" r="1.6" fill="#A4987F"/><circle cx="278" cy="63" r="1.6" fill="#A4987F"/><circle cx="289" cy="63" r="1.6" fill="#A4987F"/><circle cx="267" cy="74" r="1.6" fill="#A4987F"/><circle cx="278" cy="74" r="1.6" fill="#A4987F"/><circle cx="289" cy="74" r="1.6" fill="#A4987F"/><circle cx="267" cy="85" r="1.6" fill="#A4987F"/><circle cx="278" cy="85" r="1.6" fill="#A4987F"/><circle cx="289" cy="85" r="1.6" fill="#A4987F"/><rect x="54" y="39" width="212" height="143" rx="2" fill="#708477"/><rect x="64" y="49" width="192" height="121" rx="2" fill="#F7F5EF"/><rect x="78" y="65" width="164" height="22" rx="3" fill="#A4AB94"/><rect x="78" y="98" width="56" height="56" rx="4" fill="#AD6447"/><path d="M147 106h82" fill="none" stroke="#C4C2B2" stroke-width="2" stroke-linecap="round" stroke-linejoin="round"/><path d="M147 121h82" fill="none" stroke="#C4C2B2" stroke-width="2" stroke-linecap="round" stroke-linejoin="round"/><path d="M147 136h82" fill="none" stroke="#C4C2B2" stroke-width="2" stroke-linecap="round" stroke-linejoin="round"/><path d="M141 182v23h38v-23" fill="#708477" stroke="#203C32" stroke-width="1.3" stroke-linecap="round" stroke-linejoin="round"/><rect x="119" y="204" width="82" height="8" rx="4" fill="#203C32"/></svg>